<?xml version="1.0" encoding="UTF-8"?><svg id="Layer_2" xmlns="http://www.w3.org/2000/svg" viewBox="0 0 315.04 211.68"><defs><style>.cls-1{fill:#fff;}</style></defs><g id="Layer_1-2"><g><path d="M48.8,0H315.04V211.68H0V48.8C0,21.87,21.87,0,48.8,0Z"/><g><path class="cls-1" d="M164.74,23.48c-4.34,2.7-11.11,7.17-18.77,13.46-32.07,26.34-39.53,51.57-59.16,75.29-11.07,13.37-29.89,30.97-62.78,44.74H170.51c4.42-3.18,9.54-7.4,14.69-12.92,6.54-7.02,11.08-13.95,14.18-19.55h49.07v32.47h42.57V23.48h-126.28Zm83.21,72.18h-28.35c3.4-12.85,28.35-39.31,28.35-39.31v39.31Z"/><g><path class="cls-1" d="M48.18,164.41h6.68l-13.3,10.4,13.3,12.74h-5.96l-10.63-10.14-7.21,5.63v4.51h-4.21v-23.14h4.21v13.4l17.11-13.4Z"/><path class="cls-1" d="M80.11,174.11v-9.71h4.21v23.14h-4.21v-9.68h-19.81v9.68h-4.21v-23.14h4.21v9.71h19.81Z"/><path class="cls-1" d="M90.18,184.94c-2.5-2.17-3.75-5.17-3.75-8.99s1.25-6.81,3.75-8.97c2.5-2.16,6.22-3.24,11.16-3.24s8.62,1.08,11.12,3.24c2.5,2.16,3.75,5.15,3.75,8.97s-1.25,6.81-3.75,8.99c-2.5,2.17-6.21,3.26-11.12,3.26s-8.66-1.09-11.16-3.26Zm21.52-8.99c0-5.64-3.45-8.46-10.37-8.46-3.38,0-5.95,.68-7.72,2.04-1.77,1.36-2.65,3.5-2.65,6.42,0,5.66,3.46,8.49,10.37,8.49s10.37-2.83,10.37-8.49Z"/><path class="cls-1" d="M143.4,178.79c.59,.72,.89,1.68,.89,2.86v5.89h-4.18v-4.87c0-.81-.09-1.42-.26-1.83-.18-.41-.49-.69-.94-.86-.45-.16-1.13-.25-2.02-.25h-14.32v7.8h-4.21v-23.14h17.28c2.83,0,5.03,.57,6.6,1.7,1.57,1.13,2.35,2.89,2.35,5.28,0,2.98-1.26,5-3.79,6.06,1.14,.18,2.01,.63,2.6,1.35Zm-20.83-10.66v7.93h11.98c1.12,0,2.05-.07,2.78-.2,.73-.13,1.38-.49,1.92-1.07,.55-.58,.82-1.49,.82-2.72s-.27-2.1-.82-2.68c-.55-.58-1.19-.94-1.92-1.07-.74-.13-1.66-.2-2.78-.2h-11.98Z"/><path class="cls-1" d="M150.9,180.04c0,1.51,.83,2.65,2.48,3.41,1.66,.76,4.53,1.14,8.61,1.14,3.29,0,5.66-.3,7.11-.89,1.45-.59,2.17-1.48,2.17-2.67,0-.86-.26-1.49-.77-1.89-.51-.41-1.46-.71-2.83-.91s-3.59-.39-6.67-.59c-3.38-.2-6.04-.54-8-1.02-1.95-.48-3.4-1.21-4.33-2.19-.93-.98-1.4-2.31-1.4-4,0-2.39,1.16-4.1,3.49-5.13,2.33-1.03,5.67-1.55,10.04-1.55s7.81,.66,10.27,1.98c2.46,1.32,3.7,3.26,3.72,5.83h-4.51c0-1.01-.33-1.82-1-2.42-.67-.6-1.74-1.05-3.21-1.33-1.47-.29-3.41-.43-5.83-.43-2.19,0-3.91,.12-5.13,.36-1.23,.24-2.09,.6-2.58,1.07-.49,.47-.74,1.08-.74,1.83s.25,1.36,.76,1.78c.5,.42,1.4,.74,2.7,.97,1.29,.23,3.27,.43,5.93,.61,3.71,.26,6.51,.55,8.41,.87,1.9,.32,3.41,.93,4.52,1.84,1.12,.91,1.68,2.28,1.68,4.1,0,2.79-1.21,4.72-3.64,5.79-2.42,1.07-5.8,1.61-10.12,1.61-5,0-8.83-.62-11.47-1.86-2.64-1.24-4.04-3.34-4.2-6.3h4.54Z"/><path class="cls-1" d="M201.95,174.11v-9.71h4.21v23.14h-4.21v-9.68h-19.81v9.68h-4.21v-23.14h4.21v9.71h19.81Z"/><path class="cls-1" d="M233.58,164.41v3.69h-20.14v6.06h19.48v3.65h-19.48v6.09h20.14v3.65h-24.36v-23.14h24.36Z"/><path class="cls-1" d="M260.4,164.41v3.69h-20.14v6.06h19.48v3.65h-19.48v6.09h20.14v3.65h-24.36v-23.14h24.36Z"/><path class="cls-1" d="M285.15,165.69c1.71,.86,3.08,2.15,4.1,3.88,1.02,1.73,1.53,3.87,1.53,6.42s-.51,4.65-1.53,6.39-2.39,3.03-4.1,3.88c-1.71,.86-3.62,1.28-5.73,1.28h-16.56v-23.14h16.56c2.11,0,4.02,.43,5.73,1.28Zm-7.87,18.1c2.11,0,3.8-.22,5.09-.66,1.28-.44,2.25-1.22,2.91-2.35s.99-2.73,.99-4.79-.33-3.69-.99-4.82c-.66-1.13-1.63-1.91-2.91-2.35-1.28-.44-2.98-.66-5.09-.66h-10.2v15.63h10.2Z"/></g><g><path d="M99.63,119.67c-2.08,0-3.72-1.64-3.72-3.75,0-.65,.17-1.33,.48-1.98l7.13-15.12c.65-1.4,1.95-2.25,3.45-2.25s2.83,.85,3.52,2.29l7.17,15.29c.31,.58,.44,1.23,.44,1.81,0,2.05-1.71,3.72-3.79,3.72-1.74,0-2.76-.82-3.82-3.14h-6.96c-.96,2.22-2.08,3.14-3.89,3.14Zm8.5-8.57l-1.16-2.73-1.16,2.73h2.32Z"/><path d="M131,112.47c1.26,0,1.98,.2,2.66,.68,.89,.65,1.43,1.71,1.43,2.8,0,.99-.44,2.05-1.16,2.7-.68,.61-1.47,.85-2.77,.85h-7.17c-1.5,0-2.49-.38-3.17-1.19-.92-1.02-1.02-1.54-1.02-4.67v-12.83c0-2.56,1.47-4.23,3.72-4.23,1.16,0,2.29,.55,2.94,1.37,.68,.92,.85,1.6,.85,3.75v10.78h3.68Z"/><path d="M148.03,112.47c1.26,0,1.98,.2,2.66,.68,.89,.65,1.43,1.71,1.43,2.8,0,.99-.44,2.05-1.16,2.7-.68,.61-1.47,.85-2.77,.85h-7.17c-1.5,0-2.49-.38-3.17-1.19-.92-1.02-1.02-1.54-1.02-4.67v-12.83c0-2.56,1.47-4.23,3.72-4.23,1.16,0,2.29,.55,2.94,1.37,.68,.92,.85,1.6,.85,3.75v10.78h3.68Z"/><path d="M156.43,119.67c-2.08,0-3.72-1.64-3.72-3.75,0-.65,.17-1.33,.48-1.98l7.13-15.12c.65-1.4,1.95-2.25,3.45-2.25s2.83,.85,3.52,2.29l7.17,15.29c.31,.58,.44,1.23,.44,1.81,0,2.05-1.71,3.72-3.79,3.72-1.74,0-2.76-.82-3.82-3.14h-6.96c-.96,2.22-2.08,3.14-3.89,3.14Zm8.5-8.57l-1.16-2.73-1.16,2.73h2.32Z"/><path d="M189.3,101.18c0-1.5,.14-2.18,.68-2.97,.65-.99,1.84-1.64,3.07-1.64,1.13,0,2.15,.51,2.87,1.37,.65,.82,.89,1.6,.89,3v13.92c0,1.81-.17,2.56-.82,3.41-.68,.89-1.77,1.4-2.94,1.4s-2.18-.51-2.97-1.54l-5.94-7.61v4.78c0,1.5-.21,2.18-.85,3-.72,.85-1.77,1.37-2.9,1.37s-2.29-.55-3-1.47c-.61-.85-.78-1.54-.78-3.21v-14.4c0-2.42,1.57-4.03,3.92-4.03,1.09,0,1.95,.44,2.8,1.5l5.97,7.34v-4.23Z"/></g></g></g></g></svg>