<?xml version="1.0" encoding="UTF-8"?><svg id="Layer_2" xmlns="http://www.w3.org/2000/svg" viewBox="0 0 102.51 62.3"><defs><style>.cls-1{fill:#fff;}</style></defs><g id="Layer_1-2"><g><path d="M0,4.32c.21-.48,.38-.99,.64-1.44C1.72,1.01,3.36,.12,5.51,.12c8.87,0,17.75-.01,26.62-.02,18.75-.02,37.5-.05,56.25-.07,2.77,0,5.54-.03,8.31-.02,3.58,0,5.76,2.15,5.77,5.71,.03,16.95,.04,33.9,.06,50.85,0,3.42-2.21,5.61-5.65,5.62-11.71,.02-23.42,.02-35.13,.03-18.62,.03-37.23,.06-55.85,.08-3.19,0-5-1.41-5.74-4.46-.02-.09-.09-.17-.14-.26,0-17.76,0-35.51,0-53.27Zm97.2,3.34c-.62,.42-1.02,.7-1.43,.98-14.07,9.78-28.15,19.57-42.22,29.35-2,1.39-2.57,1.38-4.58,0C34.77,28.16,20.56,18.34,6.34,8.52c-.31-.22-.64-.41-.99-.64V54.27c.39-.29,.63-.45,.86-.63,6.3-4.89,12.6-9.77,18.9-14.66,2-1.55,4-3.12,6.02-4.65,1.04-.78,2.2-.76,3.16-.06,.92,.68,1.37,1.89,.91,2.93-.27,.6-.77,1.17-1.3,1.59-5.54,4.34-11.11,8.65-16.67,12.96-2.17,1.69-4.35,3.38-6.68,5.18H91.98c-.43-.37-.66-.58-.91-.78-5.98-4.64-11.96-9.28-17.95-13.92-1.61-1.25-3.22-2.49-4.82-3.74-.9-.71-1.25-1.66-.97-2.76,.25-1.02,.96-1.67,1.98-1.91,1-.24,1.81,.21,2.57,.8,8.14,6.32,16.29,12.64,24.43,18.95,.27,.21,.55,.39,.88,.63V7.66ZM11.43,5.35c-.02,.07-.05,.13-.07,.2,.13,.1,.25,.21,.38,.3,12.97,8.97,25.95,17.93,38.91,26.92,.52,.36,.84,.27,1.3-.05,12.81-8.92,25.62-17.83,38.43-26.74,.23-.16,.45-.35,.82-.64H11.43Z"/><path class="cls-1" d="M97.2,7.66V54.2c-.33-.23-.61-.42-.88-.63-8.15-6.31-16.29-12.63-24.43-18.95-.77-.6-1.57-1.04-2.57-.8-1.03,.24-1.73,.89-1.98,1.91-.27,1.1,.08,2.05,.97,2.76,1.6,1.26,3.21,2.5,4.82,3.74,5.98,4.64,11.97,9.28,17.95,13.92,.25,.19,.48,.41,.91,.78H10.54c2.33-1.81,4.5-3.5,6.68-5.18,5.56-4.32,11.13-8.62,16.67-12.96,.53-.41,1.03-.98,1.3-1.59,.47-1.04,.01-2.25-.91-2.93-.95-.7-2.12-.72-3.16,.06-2.02,1.52-4.02,3.09-6.02,4.65-6.3,4.89-12.6,9.77-18.9,14.66-.23,.18-.46,.34-.86,.63V7.88c.36,.23,.68,.43,.99,.64,14.21,9.82,28.42,19.64,42.63,29.46,2.01,1.39,2.58,1.39,4.58,0,14.07-9.78,28.15-19.57,42.22-29.35,.4-.28,.81-.56,1.43-.98Z"/><path class="cls-1" d="M11.43,5.35H91.19c-.37,.29-.58,.47-.82,.64-12.81,8.91-25.62,17.82-38.43,26.74-.46,.32-.78,.41-1.3,.05C37.69,23.79,24.71,14.83,11.74,5.86c-.13-.09-.25-.2-.38-.3,.02-.07,.05-.13,.07-.2Z"/></g></g></svg>